/* XPM */
static const char * info_xpm[] = {
"24 24 4 1",
" 	c None",
".	c #000000",
"+	c #828282",
"@	c #FFFFFF",
"                        ",
"                        ",
"          ...           ",
"         .+++.          ",
"        .++@++.         ",
"        .+@@@+.         ",
"        .++@++.         ",
"         .+++.          ",
"          ...           ",
"                        ",
"      ...........       ",
"      .++@@@@@++.       ",
"      ...+@@@+...       ",
"        .+@@@+.         ",
"        .+@@@+.         ",
"        .+@@@+.         ",
"        .+@@@+.         ",
"        .+@@@+.         ",
"        .+@@@+.         ",
"      ...+@@@+...       ",
"      .++@@@@@++.       ",
"      ...........       ",
"                        ",
"                        "};
