/* XPM */
static const char * move_xpm[] = {
"24 24 6 1",
" 	c None",
".	c #000000",
"+	c #B2B2B2",
"@	c #FFFFFF",
"#	c #828282",
"$	c #E5E5E5",
"                        ",
"                        ",
"           ...          ",
"          .+@+.         ",
"         .+@@@+.        ",
"        .+@@@@@+.       ",
"        .+++@+++.#      ",
"        ...+@+...#      ",
"     ... #.+@+.##...    ",
"    .++.#..+@+.. .++.   ",
"   .+@+...++@++...+@+.  ",
"  .+@@+++++@@$+++++@@+. ",
"  .@@@@@@@@@@@@@@@@@@@.#",
"  .+@@+++++@@$+++++@@+.#",
"   .+@+...++@++...+@+.##",
"    .++.#..+@+..#.++.#  ",
"     ...# .+@+.##...#   ",
"      ##...+@+...###    ",
"        .+++@+++.#      ",
"        .+@@@@@+.#      ",
"         .+@@@+.##      ",
"          .+@+.##       ",
"           ...##        ",
"            ###         "};
