/* XPM */
static const char *light_xpm[] = {
/* columns rows colors chars-per-pixel */
"24 24 9 1",
"  c black",
". c #010101",
"X c #808080",
"o c gray51",
"O c #B2B2B2",
"+ c gray100",
"@ c gray100",
"# c gray100",
"$ c None",
/* pixels */
"$$$$$$$$$$$+$$$$$$$$$$$$",
"$$$$$$$$$$$+O$$$$$$$$$$$",
"$$+O$$$$$$$+O$$$$$$$+$$$",
"$$$+O$$$$     $$$$$+O$$$",
"$$$$+O$  ooooo  $$+O$$$$",
"$$$$$+ oo+++++oo +O$$$$$",
"$$$$$ oO+++++++Oo $$$$$$",
"$$$$$ oO+++++++Oo $$$$$$",
"$$$$ oO+++++++++Oo $$$$$",
"$+++ oO+++++++++Oo +++$$",
"$$OO oO+++++++++Oo OOO$$",
"$$$$ oO+++++++++Oo $$$$$",
"$$$$$ oO+++++++Oo $$$$$$",
"$$$$$ oO+++++++Oo $$$$$$",
"$$$$+O ooO+++Ooo $+O$$$$",
"$$$+O$$  ooooo  $$$+O$$$",
"$$+O$$$$   ..  $$$$$+$$$",
"$$$$$$$$ .OOO. $$$$$$$$$",
"$$$$$$$$ X...X $$$$$$$$$",
"$$$$$$$$ .OOO. $$$$$$$$$",
"$$$$$$$$ X...X $$$$$$$$$",
"$$$$$$$$  OOO  $$$$$$$$$",
"$$$$$$$$$     $$$$$$$$$$",
"$$$$$$$$$$   $$$$$$$$$$$"
};
