/* XPM */
static const char* mono_xpm[] = {
"24 24 2 1",
". c #000000",
"  c None",
"                        ",
"                        ",
"                        ",
"                        ",
"                        ",
"                        ",
"                        ",
"         .....          ",
"       ...   ...        ",
"      ..       ..       ",
"     .    ...    .      ",
"     .    ...    .      ",
"      ..       ..       ",
"       ...   ...        ",
"         .....          ",
"                        ",
"                        ",
"                        ",
"                        ",
"                        ",
"                        ",
"                        ",
"                        ",
"                        "};
