/* XPM */
static const char * pick_xpm[] = {
"24 24 6 1",
" 	c None",
".	c #000000",
"+	c #828282",
"@	c #B2B2B2",
"#	c #E5E5E5",
"$	c #FFFFFF",
"      ..                ",
"      ...               ",
"      .+..              ",
"      .@+..             ",
"      .@#+..            ",
"      .@##@..           ",
"      .@##@@..          ",
"      .@#$#@@..         ",
"      .@#$$#@@..        ",
"      .@#$$$#@@..       ",
"      .@#$$$$#@@..      ",
"      .@#$$$$$#$+..     ",
"      .@#$$$$$$+..      ",
"      .@#$$$$+...       ",
"      .@#$$+....        ",
"      .@@+...$+..       ",
"      .@.. .+$++.       ",
"      ..   .+$$+..      ",
"           ..+$++.      ",
"            .+$$+..     ",
"            ..+$++.     ",
"             .+$$..     ",
"             .....      ",
"                        "};
