<?xml version="1.0" encoding="UTF-8" standalone="no"?>
<!-- Created with Inkscape (http://www.inkscape.org/) -->

<svg
   xmlns:dc="http://purl.org/dc/elements/1.1/"
   xmlns:cc="http://creativecommons.org/ns#"
   xmlns:rdf="http://www.w3.org/1999/02/22-rdf-syntax-ns#"
   xmlns:svg="http://www.w3.org/2000/svg"
   xmlns="http://www.w3.org/2000/svg"
   xmlns:sodipodi="http://sodipodi.sourceforge.net/DTD/sodipodi-0.dtd"
   xmlns:inkscape="http://www.inkscape.org/namespaces/inkscape"
   width="133"
   height="128"
   id="svg2"
   version="1.1"
   inkscape:version="0.47 r22583"
   sodipodi:docname="New document 1">
  <defs
     id="defs4">
    <inkscape:perspective
       sodipodi:type="inkscape:persp3d"
       inkscape:vp_x="11.428571 : 866.89538 : 1"
       inkscape:vp_y="0 : 1000 : 0"
       inkscape:vp_z="601.95162 : 921.89538 : 1"
       inkscape:persp3d-origin="372.04724 : 350.78739 : 1"
       id="perspective10" />
    <inkscape:perspective
       id="perspective3612"
       inkscape:persp3d-origin="0.5 : 0.33333333 : 1"
       inkscape:vp_z="1 : 0.5 : 1"
       inkscape:vp_y="0 : 1000 : 0"
       inkscape:vp_x="0 : 0.5 : 1"
       sodipodi:type="inkscape:persp3d" />
    <inkscape:perspective
       id="perspective3612-1"
       inkscape:persp3d-origin="0.5 : 0.33333333 : 1"
       inkscape:vp_z="1 : 0.5 : 1"
       inkscape:vp_y="0 : 1000 : 0"
       inkscape:vp_x="0 : 0.5 : 1"
       sodipodi:type="inkscape:persp3d" />
    <inkscape:perspective
       id="perspective3612-9"
       inkscape:persp3d-origin="0.5 : 0.33333333 : 1"
       inkscape:vp_z="1 : 0.5 : 1"
       inkscape:vp_y="0 : 1000 : 0"
       inkscape:vp_x="0 : 0.5 : 1"
       sodipodi:type="inkscape:persp3d" />
    <inkscape:perspective
       id="perspective3612-0"
       inkscape:persp3d-origin="0.5 : 0.33333333 : 1"
       inkscape:vp_z="1 : 0.5 : 1"
       inkscape:vp_y="0 : 1000 : 0"
       inkscape:vp_x="0 : 0.5 : 1"
       sodipodi:type="inkscape:persp3d" />
    <inkscape:perspective
       id="perspective3612-8"
       inkscape:persp3d-origin="0.5 : 0.33333333 : 1"
       inkscape:vp_z="1 : 0.5 : 1"
       inkscape:vp_y="0 : 1000 : 0"
       inkscape:vp_x="0 : 0.5 : 1"
       sodipodi:type="inkscape:persp3d" />
    <inkscape:perspective
       id="perspective3612-2"
       inkscape:persp3d-origin="0.5 : 0.33333333 : 1"
       inkscape:vp_z="1 : 0.5 : 1"
       inkscape:vp_y="0 : 1000 : 0"
       inkscape:vp_x="0 : 0.5 : 1"
       sodipodi:type="inkscape:persp3d" />
  </defs>
  <sodipodi:namedview
     id="base"
     pagecolor="#ffffff"
     bordercolor="#666666"
     borderopacity="1.0"
     inkscape:pageopacity="0.0"
     inkscape:pageshadow="2"
     inkscape:zoom="2.8"
     inkscape:cx="31.471188"
     inkscape:cy="35.202122"
     inkscape:document-units="px"
     inkscape:current-layer="layer1"
     showgrid="false"
     inkscape:window-width="1600"
     inkscape:window-height="1137"
     inkscape:window-x="-4"
     inkscape:window-y="40"
     inkscape:window-maximized="1" />
  <metadata
     id="metadata7">
    <rdf:RDF>
      <cc:Work
         rdf:about="">
        <dc:format>image/svg+xml</dc:format>
        <dc:type
           rdf:resource="http://purl.org/dc/dcmitype/StillImage" />
        <dc:title></dc:title>
      </cc:Work>
    </rdf:RDF>
  </metadata>
  <g
     inkscape:label="Layer 1"
     inkscape:groupmode="layer"
     id="layer1"
     transform="translate(-256,-203.54075)">
    <path
       sodipodi:type="arc"
       style="fill:#000000;fill-opacity:1;fill-rule:nonzero;stroke:#000000;stroke-width:8;stroke-miterlimit:4;stroke-opacity:1;stroke-dasharray:none"
       id="path2830-4"
       sodipodi:cx="169.28572"
       sodipodi:cy="183.61218"
       sodipodi:rx="1.7857143"
       sodipodi:ry="1.6071428"
       d="m 171.07144,183.61218 c 0,0.8876 -0.7995,1.60715 -1.78572,1.60715 -0.98622,0 -1.78571,-0.71955 -1.78571,-1.60715 0,-0.8876 0.79949,-1.60714 1.78571,-1.60714 0.98622,0 1.78572,0.71954 1.78572,1.60714 z"
       transform="translate(143.42857,25.535714)" />
    <g
       sodipodi:type="inkscape:box3d"
       style="fill:#000000;fill-opacity:1;fill-rule:nonzero;stroke:#ff0000;stroke-width:8;stroke-miterlimit:4;stroke-opacity:1;stroke-dasharray:none"
       id="g2816"
       inkscape:perspectiveID="#perspective10"
       inkscape:corner0="0.43856989 : 0.46207708 : 0 : 1"
       inkscape:corner7="0.11586391 : 0.35892506 : 0.25 : 1">
      <path
         sodipodi:type="inkscape:box3dside"
         id="path2826"
         style="fill:#afafde;fill-rule:evenodd;stroke:none"
         inkscape:box3dsidetype="13"
         d="m 518.10716,-426.0913 72.49583,31.59877 48.93398,-35.84949 -71.11438,-20.06917 z" />
      <path
         sodipodi:type="inkscape:box3dside"
         id="path2818"
         style="fill:#353564;fill-rule:evenodd;stroke:none"
         inkscape:box3dsidetype="6"
         d="m 518.10716,-497.79586 0,71.70456 50.31543,-24.31989 0,-61.08839 z" />
      <path
         sodipodi:type="inkscape:box3dside"
         id="path2828"
         style="fill:#e9e9ff;fill-rule:evenodd;stroke:none"
         inkscape:box3dsidetype="11"
         d="m 568.42259,-511.49958 71.11438,5.63611 0,75.52145 -71.11438,-20.06917 z" />
      <path
         sodipodi:type="inkscape:box3dside"
         id="path2820"
         style="fill:#4d4d9f;fill-rule:evenodd;stroke:none"
         inkscape:box3dsidetype="5"
         d="m 518.10716,-497.79586 72.49583,10.86193 48.93398,-18.92954 -71.11438,-5.63611 z" />
      <path
         sodipodi:type="inkscape:box3dside"
         id="path2824"
         style="fill:#d7d7ff;fill-rule:evenodd;stroke:none"
         inkscape:box3dsidetype="14"
         d="m 590.60299,-486.93393 0,92.4414 48.93398,-35.84949 0,-75.52145 z" />
      <path
         sodipodi:type="inkscape:box3dside"
         id="path2822"
         style="fill:#8686bf;fill-rule:evenodd;stroke:none"
         inkscape:box3dsidetype="3"
         d="m 518.10716,-497.79586 72.49583,10.86193 0,92.4414 -72.49583,-31.59877 z" />
    </g>
    <path
       sodipodi:type="arc"
       style="fill:#000000;fill-opacity:1;fill-rule:nonzero;stroke:#000000;stroke-width:8;stroke-miterlimit:4;stroke-opacity:1;stroke-dasharray:none"
       id="path2830-3"
       sodipodi:cx="169.28572"
       sodipodi:cy="183.61218"
       sodipodi:rx="1.7857143"
       sodipodi:ry="1.6071428"
       d="m 171.07144,183.61218 c 0,0.8876 -0.7995,1.60715 -1.78572,1.60715 -0.98622,0 -1.78571,-0.71955 -1.78571,-1.60715 0,-0.8876 0.79949,-1.60714 1.78571,-1.60714 0.98622,0 1.78572,0.71954 1.78572,1.60714 z"
       transform="translate(165,142.32143)" />
    <path
       sodipodi:type="arc"
       style="fill:#000000;fill-opacity:1;fill-rule:nonzero;stroke:#000000;stroke-width:8;stroke-miterlimit:4;stroke-opacity:1;stroke-dasharray:none"
       id="path2830-2"
       sodipodi:cx="169.28572"
       sodipodi:cy="183.61218"
       sodipodi:rx="1.7857143"
       sodipodi:ry="1.6071428"
       d="m 171.07144,183.61218 c 0,0.8876 -0.7995,1.60715 -1.78572,1.60715 -0.98622,0 -1.78571,-0.71955 -1.78571,-1.60715 0,-0.8876 0.79949,-1.60714 1.78571,-1.60714 0.98622,0 1.78572,0.71954 1.78572,1.60714 z"
       transform="translate(212.5,32.678571)" />
    <path
       sodipodi:type="arc"
       style="fill:#000000;fill-opacity:1;fill-rule:nonzero;stroke:#000000;stroke-width:8;stroke-miterlimit:4;stroke-opacity:1;stroke-dasharray:none"
       id="path2830-6"
       sodipodi:cx="169.28572"
       sodipodi:cy="183.61218"
       sodipodi:rx="1.7857143"
       sodipodi:ry="1.6071428"
       d="m 171.07144,183.61218 c 0,0.8876 -0.7995,1.60715 -1.78572,1.60715 -0.98622,0 -1.78571,-0.71955 -1.78571,-1.60715 0,-0.8876 0.79949,-1.60714 1.78571,-1.60714 0.98622,0 1.78572,0.71954 1.78572,1.60714 z"
       transform="translate(213.92857,107.32143)" />
    <path
       sodipodi:type="arc"
       style="fill:#000000;fill-opacity:1;fill-rule:nonzero;stroke:#000000;stroke-width:8;stroke-miterlimit:4;stroke-opacity:1;stroke-dasharray:none"
       id="path2830-9"
       sodipodi:cx="169.28572"
       sodipodi:cy="183.61218"
       sodipodi:rx="1.7857143"
       sodipodi:ry="1.6071428"
       d="m 171.07144,183.61218 c 0,0.8876 -0.7995,1.60715 -1.78572,1.60715 -0.98622,0 -1.78571,-0.71955 -1.78571,-1.60715 0,-0.8876 0.79949,-1.60714 1.78571,-1.60714 0.98622,0 1.78572,0.71954 1.78572,1.60714 z"
       transform="translate(92.499996,110.89286)" />
    <path
       sodipodi:type="arc"
       style="fill:#000000;fill-opacity:1;fill-rule:nonzero;stroke:#000000;stroke-width:8;stroke-miterlimit:4;stroke-opacity:1;stroke-dasharray:none"
       id="path2830-66"
       sodipodi:cx="169.28572"
       sodipodi:cy="183.61218"
       sodipodi:rx="1.7857143"
       sodipodi:ry="1.6071428"
       d="m 171.07144,183.61218 c 0,0.8876 -0.7995,1.60715 -1.78572,1.60715 -0.98622,0 -1.78571,-0.71955 -1.78571,-1.60715 0,-0.8876 0.79949,-1.60714 1.78571,-1.60714 0.98622,0 1.78572,0.71954 1.78572,1.60714 z"
       transform="translate(93.571424,39.821428)" />
    <path
       style="fill:none;stroke:#000000;stroke-width:4;stroke-linecap:butt;stroke-linejoin:miter;stroke-miterlimit:4;stroke-opacity:1;stroke-dasharray:none"
       d="m 261.78571,294.1479 0,-71.42858 72.5,10.35715 0,93.57143 -72.5,-32.5 z"
       id="path3671" />
    <path
       style="fill:none;stroke:#000000;stroke-width:4;stroke-linecap:butt;stroke-linejoin:miter;stroke-miterlimit:4;stroke-opacity:1;stroke-dasharray:none"
       d="M 334.28571,233.79075 382.5,215.57647 l 0.71429,74.64285 -47.14286,34.64286"
       id="path3673" />
    <path
       style="fill:none;stroke:#000000;stroke-width:3;stroke-linecap:butt;stroke-linejoin:miter;stroke-miterlimit:4;stroke-opacity:1;stroke-dasharray:none"
       d="m 262.14286,222.71932 51.07143,-13.21428 67.5,5"
       id="path3675" />
    <path
       sodipodi:type="arc"
       style="fill:#000000;fill-opacity:1;fill-rule:nonzero;stroke:#ff0000;stroke-width:8;stroke-miterlimit:4;stroke-opacity:1;stroke-dasharray:none"
       id="path2830"
       sodipodi:cx="169.28572"
       sodipodi:cy="183.61218"
       sodipodi:rx="1.7857143"
       sodipodi:ry="1.6071428"
       d="m 171.07144,183.61218 c 0,0.8876 -0.7995,1.60715 -1.78572,1.60715 -0.98622,0 -1.78571,-0.71955 -1.78571,-1.60715 0,-0.8876 0.79949,-1.60714 1.78571,-1.60714 0.98622,0 1.78572,0.71954 1.78572,1.60714 z"
       transform="matrix(1.4458599,0,0,1.4458599,89.514095,-32.722448)" />
  </g>
</svg>
