/* XPM */
static const char* stereo_xpm[] = {
"24 24 2 1",
". c #000000",
"  c None",
"                        ",
"                        ",
"                        ",
"                        ",
"                        ",
"                        ",
"                        ",
"    .....      .....    ",
"  ...   ...  ...   ...  ",
" ..       ....       .. ",
" .   ...   ..   ...   . ",
" .   ...   ..   ...   . ",
" ..       ....       .. ",
"  ...   ...  ...   ...  ",
"    .....      .....    ",
"                        ",
"                        ",
"                        ",
"                        ",
"                        ",
"                        ",
"                        ",
"                        ",
"                        "};
