/* XPM */
static const char * viewall_xpm[] = {
"24 24 5 1",
" 	c None",
".	c #000000",
"+	c #828282",
"@	c #FFFFFF",
"#	c #4C4C4C",
"                        ",
"                        ",
"           .+           ",
"      .+   .+   .+      ",
"      .+   .+   .+      ",
" .+   ..+  .+  ..+   .  ",
" ..+   .+++.+++.+   ..  ",
"  ..+++.........+++..+  ",
"   .....@@@@@@@.....+   ",
"  ++..@@@@+++@@@@..#    ",
" ++..@@@@+...+@@@@..##  ",
" +..@@@@+.@...+@@@@..#  ",
" +.@@@@@+.....+@@@@@.#  ",
" +..@@@@+.....+@@@@..#  ",
" ++..@@@@+...+@@@@..##  ",
"  ++..@@@@+++@@@@..#+   ",
"   .....@@@@@@@.....+   ",
"  ..+##.........###..+  ",
" ..+  ..+##.+##.+   ..  ",
" .+   .+   .+  ..+   .  ",
"      .+   .+   .+      ",
"      .+   .+   .+      ",
"           .+           ",
"                        "};
