<?xml version="1.0" encoding="UTF-8" standalone="no"?>
<!-- Created with Inkscape (http://www.inkscape.org/) -->

<svg
   xmlns:dc="http://purl.org/dc/elements/1.1/"
   xmlns:cc="http://creativecommons.org/ns#"
   xmlns:rdf="http://www.w3.org/1999/02/22-rdf-syntax-ns#"
   xmlns:svg="http://www.w3.org/2000/svg"
   xmlns="http://www.w3.org/2000/svg"
   xmlns:xlink="http://www.w3.org/1999/xlink"
   xmlns:sodipodi="http://sodipodi.sourceforge.net/DTD/sodipodi-0.dtd"
   xmlns:inkscape="http://www.inkscape.org/namespaces/inkscape"
   width="48px"
   height="48px"
   id="svg2816"
   version="1.1"
   inkscape:version="0.47 r22583"
   sodipodi:docname="showIndices.svg"
   inkscape:export-filename="/home/wilden/projects/OpenFlipper-Animation/Plugin-TypeSkeleton/Icons/showIndices.png"
   inkscape:export-xdpi="90"
   inkscape:export-ydpi="90">
  <defs
     id="defs2818">
    <linearGradient
       id="linearGradient3602">
      <stop
         style="stop-color:#000000;stop-opacity:1;"
         offset="0"
         id="stop3604" />
      <stop
         style="stop-color:#1c69ab;stop-opacity:0.75925928;"
         offset="1"
         id="stop3606" />
    </linearGradient>
    <inkscape:perspective
       sodipodi:type="inkscape:persp3d"
       inkscape:vp_x="0 : 24 : 1"
       inkscape:vp_y="0 : 1000 : 0"
       inkscape:vp_z="48 : 24 : 1"
       inkscape:persp3d-origin="24 : 16 : 1"
       id="perspective2824" />
    <linearGradient
       inkscape:collect="always"
       xlink:href="#linearGradient3602"
       id="linearGradient3612"
       x1="2.3917415"
       y1="23.759487"
       x2="45.700336"
       y2="23.759487"
       gradientUnits="userSpaceOnUse"
       gradientTransform="translate(0.14285714,1)" />
    <linearGradient
       inkscape:collect="always"
       xlink:href="#linearGradient3602"
       id="linearGradient3655"
       x1="7.0577402"
       y1="23.78661"
       x2="40.216064"
       y2="23.78661"
       gradientUnits="userSpaceOnUse" />
    <filter
       inkscape:collect="always"
       id="filter3669">
      <feGaussianBlur
         inkscape:collect="always"
         stdDeviation="1.2206304"
         id="feGaussianBlur3671" />
    </filter>
  </defs>
  <sodipodi:namedview
     id="base"
     pagecolor="#ffffff"
     bordercolor="#666666"
     borderopacity="1.0"
     inkscape:pageopacity="0.0"
     inkscape:pageshadow="2"
     inkscape:zoom="7"
     inkscape:cx="-1.2142857"
     inkscape:cy="24"
     inkscape:current-layer="layer1"
     showgrid="true"
     inkscape:grid-bbox="true"
     inkscape:document-units="px"
     inkscape:window-width="1600"
     inkscape:window-height="1154"
     inkscape:window-x="-4"
     inkscape:window-y="-3"
     inkscape:window-maximized="1" />
  <metadata
     id="metadata2821">
    <rdf:RDF>
      <cc:Work
         rdf:about="">
        <dc:format>image/svg+xml</dc:format>
        <dc:type
           rdf:resource="http://purl.org/dc/dcmitype/StillImage" />
        <dc:title></dc:title>
      </cc:Work>
    </rdf:RDF>
  </metadata>
  <g
     id="layer1"
     inkscape:label="Layer 1"
     inkscape:groupmode="layer">
    <path
       style="fill:#7ebefe;stroke:url(#linearGradient3655);stroke-width:2;stroke-linecap:butt;stroke-linejoin:miter;stroke-opacity:1;fill-opacity:1;filter:url(#filter3669);stroke-miterlimit:4;stroke-dasharray:none"
       d="m 39.571429,21 c 0,-1.380952 0,-2.761904 0,-4.142857 0,-0.238095 0,-0.47619 0,-0.714286 0,-0.142857 0.04518,-0.293045 0,-0.428571 -0.05714,-0.171429 -0.228572,-0.114286 -0.285715,-0.285714 -0.03012,-0.09035 0,-0.190476 0,-0.285715 0,-0.04762 0.0213,-0.100265 0,-0.142857 -0.03012,-0.06023 -0.11274,-0.08262 -0.142857,-0.142857 -0.04259,-0.08518 0.04259,-0.200531 0,-0.285714 -0.03012,-0.06023 -0.11274,-0.08262 -0.142857,-0.142857 -0.0213,-0.04259 0,-0.09524 0,-0.142857 0,-0.09524 0.03012,-0.195364 0,-0.285715 -0.04259,-0.127775 -0.22548,-0.165246 -0.285714,-0.285714 -0.04259,-0.08518 0.06734,-0.218371 0,-0.285714 -0.03367,-0.03367 -0.109186,0.03367 -0.142857,0 -0.03367,-0.03367 0.0213,-0.100266 0,-0.142857 -0.03012,-0.06023 -0.09524,-0.09524 -0.142857,-0.142858 C 38.380952,13.095237 38.349602,13.021296 38.285714,13 38.195364,12.96988 38.090351,13.03012 38,13 c -0.127775,-0.04259 -0.157939,-0.243122 -0.285714,-0.285714 -0.09035,-0.03012 -0.192326,0.01868 -0.285714,0 -0.887574,-0.177515 0.03043,-0.108199 -0.857143,-0.285714 -0.09339,-0.01868 -0.190476,0 -0.285715,0 -0.190476,0 -0.380952,0 -0.571428,0 -0.09524,0 -0.190476,0 -0.285714,0 -0.04762,0 -0.09768,-0.01506 -0.142858,0 -1.034773,0.344924 0.22523,-0.04119 -0.428571,0.285714 -0.04259,0.0213 -0.103236,-0.02641 -0.142857,0 -0.112067,0.07471 -0.173648,0.211003 -0.285714,0.285714 -0.03962,0.02642 -0.09768,-0.01506 -0.142858,0 -0.101015,0.03367 -0.197118,0.08379 -0.285714,0.142857 -0.112066,0.07471 -0.173648,0.211004 -0.285714,0.285715 0.01627,0.270632 -0.333333,0.09524 -0.428572,0.142857 -0.120467,0.06023 -0.165246,0.22548 -0.285714,0.285714 -0.04259,0.0213 -0.109185,-0.03367 -0.142857,0 -0.03367,0.03367 0.03367,0.109186 0,0.142857 -0.03367,0.03367 -0.100265,-0.0213 -0.142857,0 -0.06023,0.03012 -0.08262,0.11274 -0.142857,0.142857 -0.08979,0.04489 -0.48164,-0.04489 -0.571429,0 -0.06023,0.03012 -0.08262,0.112741 -0.142857,0.142858 -0.04259,0.0213 -0.100265,-0.0213 -0.142857,0 -0.06023,0.03012 -0.07897,0.121561 -0.142857,0.142857 -0.09035,0.03012 -0.190476,0 -0.285715,0 -0.04762,0 -0.100265,-0.0213 -0.142857,0 -0.06023,0.03012 -0.08262,0.11274 -0.142857,0.142857 -0.04259,0.0213 -0.09524,0 -0.142857,0 -0.09524,0 -0.190476,0 -0.285714,0 -0.0747,0 -0.533866,0.01878 -0.571429,0 -0.06023,-0.03012 -0.08262,-0.11274 -0.142857,-0.142857 -0.04259,-0.0213 -0.100265,0.0213 -0.142857,0 -0.091,-0.0455 -0.602033,-0.602034 -0.714286,-0.714286 -0.142857,-0.142857 -0.285714,-0.285714 -0.428571,-0.428571 -0.04762,-0.04762 -0.105502,-0.08682 -0.142857,-0.142858 -0.05906,-0.0886 -0.08379,-0.197118 -0.142858,-0.285714 C 28.211004,12.745077 28.060234,12.691897 28,12.571429 c -0.0213,-0.04259 0.0213,-0.100266 0,-0.142857 -0.03012,-0.06023 -0.121561,-0.07897 -0.142857,-0.142857 -0.04518,-0.135527 0,-0.285715 0,-0.428572 0,-0.333333 0,-0.666667 0,-1 0,-0.761905 0,-1.5238092 0,-2.2857142 0,-0.238095 0,-0.476191 0,-0.714286 0,-0.04762 0,-0.09524 0,-0.142857 0,-0.047619 0.0213,-0.1002654 0,-0.1428571 -0.03012,-0.060234 -0.11274,-0.082623 -0.142857,-0.1428572 -0.0213,-0.042592 0.0213,-0.1002654 0,-0.1428571 -0.03012,-0.060234 -0.11274,-0.082623 -0.142857,-0.1428572 -0.04259,-0.085183 0.04259,-0.2005307 0,-0.2857143 -0.03012,-0.060234 -0.11274,-0.082623 -0.142857,-0.1428571 -0.0213,-0.042592 0.0213,-0.1002654 0,-0.1428571 C 27.270639,6.2555637 27.339908,6.527097 27.142857,6.4285715 27.082623,6.3984546 27.056033,6.3230698 27,6.2857144 26.911404,6.2266502 26.789578,6.2181496 26.714286,6.1428572 26.638994,6.0675649 26.646721,5.9324353 26.571429,5.8571429 26.496136,5.7818506 26.380953,5.7619048 26.285714,5.7142858 25.865313,5.5040852 26.101015,5.6051004 25.571429,5.4285715 25.428572,5.3809525 25.277544,5.3530579 25.142857,5.2857144 24.98929,5.208931 24.867853,5.0767835 24.714286,5.0000001 24.023754,4.6547343 24.544834,4.9661098 24,4.8571429 23.85234,4.8276109 23.719089,4.7438179 23.571429,4.7142858 c -0.09339,-0.018678 -0.19332,0.023099 -0.285715,0 C 23.182414,4.6884608 23.101015,4.6051004 23,4.5714287 c -0.04518,-0.015059 -0.09524,0 -0.142857,0 -0.190476,0 -0.384651,0.037355 -0.571429,0 -0.286877,0.032783 -0.465505,-0.2235194 -0.714285,-0.2857143 -0.09239,-0.023099 -0.19332,0.023099 -0.285715,0 -0.2066,-0.05165 -0.364828,-0.2340642 -0.571428,-0.2857143 -0.09239,-0.023099 -0.195364,0.030117 -0.285714,0 -0.06389,-0.021296 -0.07897,-0.1215613 -0.142858,-0.1428572 -0.180701,-0.060234 -0.390727,0.060234 -0.571428,0 -0.06389,-0.021296 -0.07897,-0.1215612 -0.142857,-0.1428571 -0.06539,-0.021798 -0.634549,0 -0.714286,0 -0.52381,0 -1.047619,0 -1.571429,0 -0.380952,0 -0.761904,0 -1.142857,0 -0.09524,0 -0.190476,0 -0.285714,0 -0.04762,0 -0.09768,-0.015059 -0.142857,0 -0.202031,0.067343 -0.364828,0.2340642 -0.571429,0.2857143 -0.09239,0.023099 -0.197288,-0.035371 -0.285714,0 -0.159413,0.063765 -0.281346,0.197379 -0.428571,0.2857143 -0.2713,0.1627799 -0.594034,0.2531654 -0.857143,0.4285714 -0.112067,0.074711 -0.157939,0.2431225 -0.285715,0.2857143 -0.09035,0.030117 -0.195363,-0.030117 -0.285714,0 -0.127775,0.042592 -0.165246,0.2254804 -0.285714,0.2857143 -0.04259,0.021296 -0.109186,-0.033672 -0.142857,0 -0.03367,0.033672 0.0213,0.1002653 0,0.1428571 C 12.557759,5.4559175 12.027346,5.9863272 12,6.0000001 c -0.04259,0.021296 -0.109185,-0.033672 -0.142857,0 -0.295577,0.2955765 0.45168,-0.011554 -0.142857,0.2857143 -0.04259,0.021296 -0.109186,-0.033672 -0.142857,0 -0.03367,0.033672 0.0213,0.1002653 0,0.1428571 -0.157933,0.315865 -0.08866,0.044332 -0.285715,0.1428572 -0.315865,0.1579325 -0.04433,0.088663 -0.142857,0.2857142 -0.08571,0.1714286 -0.342857,0.2571429 -0.428571,0.4285715 -0.0213,0.042592 0.0213,0.1002653 0,0.1428571 -0.03012,0.060234 -0.11274,0.082623 -0.142857,0.1428572 -0.0213,0.042592 0.0213,0.1002653 0,0.1428571 -0.326901,0.653801 0.05921,-0.6062024 -0.285715,0.428571 -0.01506,0.04518 0.0213,0.100266 0,0.142858 -0.06023,0.120467 -0.22548,0.165246 -0.2857141,0.285714 -0.04259,0.08518 0.04259,0.200531 0,0.285714 -0.03012,0.06023 -0.11274,0.08262 -0.142857,0.142857 -0.0213,0.04259 0.01506,0.09768 0,0.142857 -0.03367,0.101016 -0.109185,0.184699 -0.142857,0.285715 -0.01506,0.04518 0.01506,0.09768 0,0.142857 -0.06734,0.20203 -0.234064,0.3648281 -0.285714,0.5714282 -0.0231,0.09239 0.0231,0.19332 0,0.285715 -0.07093,0.283698 -0.357647,0.573445 -0.428572,0.857143 -0.03465,0.138591 0.04518,0.293045 0,0.428571 C 8.9663299,11.815301 8.8829679,11.8967 8.8571429,12 c -0.0231,0.09239 0,0.190476 0,0.285715 0,0.238095 0,0.47619 0,0.714285 0,0.428572 0,0.857143 0,1.285715 0,0.12095 -0.0256,0.494627 0,0.571428 0.0213,0.06389 0.121561,0.07897 0.142857,0.142857 0.03012,0.09035 -0.03012,0.195364 0,0.285715 0.0213,0.06389 0.11274,0.08262 0.142857,0.142857 0.0213,0.04259 -0.01506,0.09768 0,0.142857 0.344925,1.034774 -0.04119,-0.22523 0.285715,0.428571 0.04489,0.08979 -0.0449,0.48164 0,0.571429 0.03012,0.06023 0.11274,0.08262 0.142857,0.142857 0.0213,0.04259 -0.01506,0.09768 0,0.142857 0.03367,0.101015 0.109185,0.184699 0.142857,0.285714 0.01506,0.04518 -0.0213,0.100266 0,0.142858 0.03012,0.06023 0.11274,0.08262 0.142857,0.142857 0.0213,0.04259 -0.0213,0.100265 0,0.142857 0.03815,0.0763 0.3533621,0.353362 0.4285711,0.428571 0.07521,0.07521 0.352274,0.390423 0.428572,0.428572 0.04259,0.0213 0.109185,-0.03367 0.142857,0 0.295577,0.295576 -0.45168,-0.01156 0.142857,0.285714 0.04259,0.0213 0.100266,-0.0213 0.142857,0 0.12662,0.06331 0.298527,0.341875 0.428572,0.428571 0.328471,0.218982 0.385814,0.06673 0.714285,0.285715 0.112067,0.07471 0.173648,0.211003 0.285715,0.285714 0.07194,0.314738 0.293884,0.07551 0.428571,0.142857 0.06023,0.03012 0.08262,0.11274 0.142857,0.142857 0.127776,0.06389 0.300796,-0.06389 0.428572,0 0.04259,0.0213 -0.04259,0.121562 0,0.142857 0.285714,0.142858 0.214285,-0.07143 0.428571,0 0.101015,0.03367 0.184699,0.109186 0.285714,0.142858 0.135527,0.04518 0.293046,-0.04518 0.428572,0 0.06389,0.0213 0.08262,0.11274 0.142857,0.142857 0.08604,0.04302 0.732278,-0.04162 0.857143,0 0.809384,0.404692 -0.212959,-0.05324 0.571428,0.142857 0.206601,0.05165 0.362606,0.243949 0.571429,0.285714 0.140083,0.02802 0.28998,-0.03465 0.428571,0 0.06533,0.01633 0.08262,0.11274 0.142858,0.142857 0.07435,0.334097 0.404288,0.08714 0.571428,0.142857 0.101015,0.03367 0.184699,0.109186 0.285714,0.142858 0.04518,0.01506 0.100266,-0.0213 0.142858,0 0.06023,0.03012 0.09524,0.09524 0.142857,0.142857 0.111583,0.111583 0.3053,0.34639 0.428571,0.428571 0.0886,0.05906 0.197118,0.08379 0.285714,0.142857 0.05869,0.03913 0.389445,0.369882 0.428572,0.428572 0.05906,0.0886 0.06756,0.210422 0.142857,0.285714 0.295577,0.295577 -0.01155,-0.45168 0.285714,0.142857 0.0213,0.04259 -0.0213,0.100266 0,0.142857 0.473798,0.473798 -0.06734,-0.134687 0.142857,0.285715 0.03012,0.06023 0.112741,0.08262 0.142858,0.142857 0.05714,0.114285 -0.05714,0.314285 0,0.428571 0.03012,0.06023 0.11274,0.08262 0.142857,0.142857 0.02174,0.04348 0,0.364235 0,0.428572 0,0.238095 0,0.47619 0,0.714285 0,0.04762 0,0.09524 0,0.142858 0,0.04762 0.0213,0.100265 0,0.142857 -0.03012,0.06023 -0.11274,0.08262 -0.142857,0.142857 -0.0213,0.04259 0.0213,0.100265 0,0.142857 -0.157933,0.315865 -0.08866,0.04433 -0.285715,0.142857 C 20.082627,25.887263 20.047617,25.952383 20,26 c -0.190476,0.190476 -0.380952,0.380953 -0.571428,0.571429 -0.04762,0.04762 -0.09524,0.09524 -0.142858,0.142857 -0.04762,0.04762 -0.08262,0.11274 -0.142857,0.142857 -0.04259,0.0213 -0.109185,-0.03367 -0.142857,0 -0.346972,0.346972 0.04248,0.209775 -0.285714,0.428572 -0.0886,0.05906 -0.197118,0.08379 -0.285714,0.142857 -0.05603,0.03735 -0.08682,0.105501 -0.142858,0.142857 -0.0886,0.05906 -0.194409,0.08807 -0.285714,0.142857 -0.147225,0.08834 -0.281346,0.197379 -0.428571,0.285714 -0.270283,0.16217 -0.575125,0.287563 -0.857143,0.428572 -0.09524,0.04762 -0.197118,0.08379 -0.285714,0.142857 -0.112067,0.07471 -0.157939,0.243122 -0.285715,0.285714 -0.09035,0.03012 -0.193319,-0.0231 -0.285714,0 -0.258563,-0.0861 -0.265689,0.23142 -0.428571,0.285714 -0.09035,0.03012 -0.19332,-0.0231 -0.285715,0 -0.1033,0.02582 -0.182414,0.117033 -0.285714,0.142858 -0.09239,0.0231 -0.195363,-0.03012 -0.285714,0 -0.06389,0.0213 -0.08682,0.105501 -0.142857,0.142857 -0.0886,0.05906 -0.190477,0.09524 -0.285715,0.142857 -0.09524,0.04762 -0.182414,0.117032 -0.285714,0.142857 -0.09239,0.0231 -0.19332,-0.0231 -0.285714,0 -0.103301,0.02582 -0.182414,0.117032 -0.285715,0.142857 -0.09239,0.0231 -0.193319,-0.0231 -0.285714,0 -0.1033,0.02582 -0.190476,0.09524 -0.285714,0.142857 -0.09524,0.04762 -0.197118,0.08379 -0.285714,0.142857 -0.05603,0.03736 -0.08682,0.105502 -0.142858,0.142858 -0.263736,0.175824 -0.593406,0.252747 -0.857142,0.428571 -0.05603,0.03735 -0.08262,0.11274 -0.142858,0.142857 -0.04259,0.0213 -0.09524,0 -0.142857,0 -0.09524,0.04762 -0.197118,0.08379 -0.285714,0.142857 -0.112066,0.07471 -0.190476,0.190476 -0.285714,0.285715 -0.142857,0.142857 -0.285715,0.285714 -0.428572,0.428571 -0.08402,0.08402 -0.5383511,0.505274 -0.5714281,0.571429 -0.0213,0.04259 0.0213,0.100265 0,0.142857 -0.03012,0.06023 -0.105502,0.08682 -0.142857,0.142857 -0.05907,0.0886 -0.08379,0.197118 -0.142858,0.285714 -0.03735,0.05603 -0.105501,0.08682 -0.142857,0.142857 -0.05906,0.0886 -0.08379,0.197118 -0.142857,0.285715 -0.03735,0.05603 -0.121561,0.07897 -0.142857,0.142857 -0.03012,0.09035 0.03012,0.195363 0,0.285714 -0.0213,0.06389 -0.105502,0.08682 -0.142857,0.142857 -0.05906,0.0886 -0.08379,0.197118 -0.142857,0.285714 -0.07471,0.112067 -0.243123,0.157939 -0.285715,0.285715 -0.03012,0.09035 0.03012,0.195363 0,0.285714 -0.0213,0.06389 -0.11274,0.08262 -0.142857,0.142857 -0.0213,0.04259 0.01506,0.09768 0,0.142857 -0.03367,0.101016 -0.109185,0.184699 -0.142857,0.285715 -0.01506,0.04518 0.01506,0.09768 0,0.142857 -0.06734,0.20203 -0.218371,0.369398 -0.285714,0.571428 -0.01506,0.04518 0,0.09524 0,0.142857 0,0.09524 0,0.190477 0,0.285715 0,0.285714 0,0.571428 0,0.857143 0,0.09524 0,0.190476 0,0.285714 0,0.09524 0.03012,0.195363 0,0.285714 -0.0213,0.06389 -0.11274,0.08262 -0.142857,0.142857 -0.02044,0.04089 0,0.63797 0,0.714286 0,0.155986 -0.0308,0.621899 0,0.714286 0.03367,0.101015 0.109185,0.184699 0.142857,0.285714 0.03012,0.09035 -0.03012,0.195363 0,0.285714 0.03367,0.101016 0.109185,0.184699 0.142857,0.285715 0.01506,0.04518 -0.01506,0.09768 0,0.142857 0.03367,0.101015 0.109185,0.184699 0.142857,0.285714 0.01506,0.04518 -0.01506,0.09768 0,0.142857 0.03367,0.101015 0.117032,0.182414 0.142857,0.285714 0.0231,0.0924 -0.0231,0.19332 0,0.285715 0.05165,0.2066 0.218371,0.369398 0.285715,0.571428 0.04286,0.128572 -0.04286,0.3 0,0.428572 0.0213,0.06389 0.11274,0.08262 0.142857,0.142857 0.04259,0.08518 -0.04259,0.200531 0,0.285714 0.03012,0.06023 0.11274,0.08262 0.142857,0.142857 0.02832,0.05664 -0.02921,0.399367 0,0.428572 0.03367,0.03367 0.100265,-0.0213 0.142857,0 0.594537,0.297268 -0.152719,-0.0099 0.142857,0.285714 0.03367,0.03367 0.100266,-0.0213 0.142857,0 0.06023,0.03012 0.08262,0.11274 0.142857,0.142857 0.05166,0.02583 0.614923,0 0.714286,0 0.4761911,0 0.9523811,0 1.4285721,0 0.190476,0 0.380952,0 0.571428,0 0.09524,0 0.190476,0 0.285714,0 0.04762,0 0.100266,0.0213 0.142858,0 0.06023,-0.03012 0.09524,-0.09524 0.142857,-0.142857 0.09524,0 0.195363,0.03012 0.285714,0 0.06389,-0.0213 0.07897,-0.121561 0.142857,-0.142857 0.09035,-0.03012 0.19332,0.0231 0.285714,0 0.103301,-0.02582 0.197118,-0.08379 0.285715,-0.142857 0.05603,-0.03736 0.07752,-0.126524 0.142857,-0.142857 0.138592,-0.03465 0.287658,0.02349 0.428571,0 0.290663,0.04962 0.462829,-0.235423 0.714286,-0.285715 0.140083,-0.02802 0.287658,0.02349 0.428571,0 0.148536,-0.02476 0.285715,-0.09524 0.428572,-0.142857 C 16,42.761903 16.285714,42.666667 16.571429,42.571429 17,42.428572 17.428572,42.285715 17.857143,42.142857 c 0.285714,-0.09524 0.577514,-0.173862 0.857143,-0.285714 0.197727,-0.07909 0.380952,-0.190476 0.571428,-0.285714 0.09524,-0.04762 0.182414,-0.117032 0.285715,-0.142857 0.09239,-0.0231 0.193319,0.0231 0.285714,0 0.309752,-0.07744 0.404534,-0.351134 0.714286,-0.428572 0.09239,-0.0231 0.190476,0 0.285714,0 0.04762,0 0.100265,0.0213 0.142857,0 0.06023,-0.03012 0.07897,-0.121561 0.142857,-0.142857 0.09035,-0.03012 0.190476,0 0.285715,0 0.04762,0 0.100265,0.0213 0.142857,0 0.06023,-0.03012 0.09524,-0.09524 0.142857,-0.142857 0.09524,0 0.195363,0.03012 0.285714,0 0.06389,-0.0213 0.08262,-0.11274 0.142857,-0.142857 0.08518,-0.04259 0.200531,0.04259 0.285715,0 0.06023,-0.03012 0.07897,-0.121561 0.142857,-0.142857 0.09035,-0.03012 0.190476,0 0.285714,0 0.09524,0 0.190476,0 0.285714,0 0.322748,0 -0.06389,0.0213 0.428572,-0.142857 0.04518,-0.01506 0.09524,0 0.142857,0 0.121235,0 0.778389,0.02625 0.857143,0 0.06389,-0.0213 0.07897,-0.121562 0.142857,-0.142858 0.09035,-0.03012 0.190476,0 0.285714,0 0.09524,0 0.190476,0 0.285714,0 0.428572,0 0.857143,0 1.285715,0 0.285714,0 0.571428,0 0.857143,0 0.09524,0 0.195363,-0.03012 0.285714,0 0.06389,0.0213 0.07897,0.121562 0.142857,0.142858 0.342857,0.114285 0.228571,-0.114286 0.571429,0 0.127775,0.04259 0.157939,0.243122 0.285714,0.285714 0.09035,0.03012 0.195363,-0.03012 0.285714,0 0.127775,0.04259 0.173648,0.211003 0.285714,0.285714 0.0886,0.05906 0.197118,0.08379 0.285715,0.142857 0.130045,0.0867 0.301951,0.365262 0.428571,0.428572 0.04259,0.0213 0.100266,-0.0213 0.142857,0 0.171429,0.08571 0.257143,0.342857 0.428572,0.428571 0.04259,0.0213 0.100265,-0.0213 0.142857,0 0.140575,0.07029 0.430853,0.501141 0.571428,0.571429 0.04259,0.0213 0.100266,-0.0213 0.142858,0 0.120467,0.06023 0.157939,0.243122 0.285714,0.285714 0.09035,0.03012 0.195363,-0.03012 0.285714,0 0.06389,0.0213 0.08262,0.11274 0.142857,0.142857 0.04259,0.0213 0.09524,0 0.142857,0 0.09524,0 0.195364,-0.03012 0.285715,0 0.06389,0.0213 0.08262,0.11274 0.142857,0.142857 0.04089,0.02044 0.637969,0 0.714286,0 0.335025,0 -0.06734,-0.03367 0.285714,0.142857 0.0075,0.0037 0.421098,0.0037 0.428571,0 0.123077,-0.06154 0.162638,-0.224175 0.285715,-0.285714 0.04259,-0.0213 0.100265,0.0213 0.142857,0 0.120467,-0.06023 0.165246,-0.22548 0.285714,-0.285714 0.04259,-0.0213 0.109185,0.03367 0.142857,0 0.07529,-0.07529 0.08379,-0.197118 0.142857,-0.285714 0.03736,-0.05603 0.09524,-0.09524 0.142857,-0.142858 0.111584,-0.111583 0.3053,-0.34639 0.428572,-0.428571 0.208183,-0.138789 0.297552,-0.08919 0.428571,-0.285714 0.05906,-0.0886 0.08379,-0.197118 0.142857,-0.285715 0.03736,-0.05603 0.121562,-0.07897 0.142858,-0.142857 0.03012,-0.09035 -0.03012,-0.195363 0,-0.285714 0.02129,-0.06389 0.09524,-0.09524 0.142857,-0.142857 0.04762,-0.09524 0.117032,-0.182414 0.142857,-0.285714 0.0231,-0.0924 -0.0231,-0.19332 0,-0.285715 0.02582,-0.1033 0.117032,-0.182414 0.142857,-0.285714 0.0231,-0.0924 -0.0231,-0.19332 0,-0.285714 0.05165,-0.206601 0.24395,-0.362606 0.285714,-0.571429 0.0657,-0.328509 -0.05603,-0.806683 0,-1.142857 0.02476,-0.148536 0.113325,-0.280911 0.142857,-0.428571 0.01868,-0.09339 0,-0.190477 0,-0.285715 0,-0.190476 0.02694,-0.382866 0,-0.571428 C 37.264424,36.279501 37.172389,36.147661 37.142857,36 c -0.04669,-0.233471 0.04669,-0.480814 0,-0.714285 C 37.121977,35.181303 37.025825,35.103301 37,35 36.94225,34.769014 37.04669,34.519186 37,34.285715 36.97912,34.181303 36.882968,34.103301 36.857143,34 c -0.0231,-0.09239 0.0231,-0.193319 0,-0.285714 -0.05165,-0.2066 -0.234064,-0.364828 -0.285714,-0.571429 -0.0231,-0.09239 0,-0.190476 0,-0.285714 -0.04762,-0.09524 -0.117032,-0.182414 -0.142857,-0.285714 -0.0231,-0.0924 0.0231,-0.19332 0,-0.285714 C 36.402742,32.182414 36.311539,32.103301 36.285714,32 c -0.0231,-0.09239 0.03012,-0.195363 0,-0.285714 -0.02129,-0.06389 -0.126524,-0.07752 -0.142857,-0.142857 -0.03465,-0.138592 0,-0.285714 0,-0.428572 0,-0.04762 0.01506,-0.09768 0,-0.142857 C 36.109186,30.898985 36.025825,30.817586 36,30.714286 c -0.06201,-0.248035 0.06201,-0.609108 0,-0.857143 -0.02582,-0.1033 -0.109185,-0.184699 -0.142857,-0.285714 -0.03012,-0.09035 0,-0.190476 0,-0.285714 0,-0.285715 0,-0.571429 0,-0.857143 0,-0.285715 0,-0.571429 0,-0.857143 0,-0.06434 -0.02174,-0.385095 0,-0.428572 C 35.887263,27.082627 35.969883,27.060237 36,27 c 0.04259,-0.08518 -0.04259,-0.20053 0,-0.285714 0.03012,-0.06023 0.11274,-0.08262 0.142857,-0.142857 0.0213,-0.04259 -0.0213,-0.100266 0,-0.142857 0.03012,-0.06023 0.11274,-0.08262 0.142857,-0.142857 0.0213,-0.04259 0,-0.09524 0,-0.142858 0.04762,-0.04762 0.112741,-0.08262 0.142858,-0.142857 0.02129,-0.04259 -0.0213,-0.100265 0,-0.142857 0.3269,-0.653801 -0.05921,0.606202 0.285714,-0.428571 0.03012,-0.09035 -0.04259,-0.200531 0,-0.285715 0.03012,-0.06023 0.09524,-0.09524 0.142857,-0.142857 0.04762,-0.04762 0.08262,-0.11274 0.142857,-0.142857 0.04259,-0.0213 0.100266,0.0213 0.142857,0 0.315865,-0.157932 0.04433,-0.08866 0.142857,-0.285714 0.03012,-0.06023 0.09524,-0.09524 0.142858,-0.142857 0.04762,-0.04762 0.08262,-0.11274 0.142857,-0.142857 0.197051,-0.09853 0.127782,0.173007 0.285714,-0.142858 0.0213,-0.04259 -0.0213,-0.100265 0,-0.142857 0.06023,-0.120467 0.22548,-0.165246 0.285714,-0.285714 0.0213,-0.04259 -0.03367,-0.109185 0,-0.142857 0.03367,-0.03367 0.109186,0.03367 0.142857,0 0.03367,-0.03367 -0.02129,-0.100266 0,-0.142857 0.03012,-0.06023 0.112741,-0.08262 0.142858,-0.142857 0.02129,-0.04259 -0.03367,-0.109186 0,-0.142858 0.03367,-0.03367 0.109185,0.03367 0.142857,0 0.06734,-0.06734 -0.06734,-0.21837 0,-0.285714 0.03367,-0.03367 0.109185,0.03367 0.142857,0 0.03367,-0.03367 -0.0213,-0.100265 0,-0.142857 0.03012,-0.06023 0.11274,-0.08262 0.142857,-0.142857 0.0213,-0.04259 -0.0213,-0.100266 0,-0.142857 0.03012,-0.06023 0.09524,-0.09524 0.142857,-0.142857 0.190476,-0.238096 0.458188,-0.431184 0.571429,-0.714286 0.08843,-0.221066 -0.238096,-0.714286 0,-0.714286 0.238095,0 -0.238096,0.714286 0,0.714286 0.24281,0 0.09524,-0.476191 0.142857,-0.714286"
       id="path3635" />
  </g>
</svg>
