/* XPM */
static const char * ortho_xpm[] = {
"24 24 4 1",
" 	c None",
".	c #000000",
"+	c #FFFFFF",
"@	c #828282",
"                        ",
"                        ",
"                        ",
"                        ",
" .....................  ",
" .++++.++++.++++.++++.@ ",
" .++++.++++.++++.++++.@ ",
" .++++.++++.++++.++++.@ ",
" .++++.++++.++++.++++.@ ",
" .....................@ ",
" .++++.++++.++++.++++.@ ",
" .++++.++++.++++.++++.@ ",
" .++++.++++.++++.++++.@ ",
" .++++.++++.++++.++++.@ ",
" .....................@ ",
" .++++.++++.++++.++++.@ ",
" .++++.++++.++++.++++.@ ",
" .++++.++++.++++.++++.@ ",
" .++++.++++.++++.++++.@ ",
" .....................@ ",
"  @@@@@@@@@@@@@@@@@@@@@ ",
"                        ",
"                        ",
"                        "};
