/* XPM */
static const char * persp_xpm[] = {
"24 24 5 1",
" 	c None",
".	c #000000",
"+	c #828282",
"@	c #FFFFFF",
"#	c #FCFCFC",
"                        ",
"                        ",
"                        ",
"                        ",
"                        ",
"       .........+       ",
"      ..@.@.@.@..+      ",
"      .@@.@.@.@@.+      ",
"     .............+     ",
"     .@@.@@.@@.@@.+     ",
"    ..@@.@@.@@.@@..+    ",
"    .@@@.@@.@@.@@@.+    ",
"   .................+   ",
"   .@@@.@@@.@@@.@@#.+   ",
"  ..@@@.@@@.@@@.@@@..+  ",
"  .@@@..@@@.@@@..@@@.+  ",
" ..@@@.@@@@.@@@@.@@@..+ ",
" .@@@@.@@@@.@@@@.@@@@.+ ",
" .....................+ ",
"  +++++++++++++++++++++ ",
"                        ",
"                        ",
"                        ",
"                        "};
