/* XPM */
static const char * scenegraph_xpm[] = {
"24 24 6 1",
" 	c None",
".	c #000000",
"+	c #FFFFFF",
"@	c #D8D8D8",
"#	c #828282",
"$	c #B2B2B2",
"                        ",
"   ...                  ",
"  .+@@.                 ",
"  .@+@.#                ",
"  .@@$.#                ",
"   ...##                ",
"    .##  ...            ",
"    .#  .+@@.           ",
"    .....@+@.#          ",
"    .###.@@$.#          ",
"    .#   ...##          ",
"    .#    .##  ...      ",
"    .#    .#  .+@@.     ",
"    .#    .....@+@.#    ",
"    .#     ###.@@$.#    ",
"    .#         ...##    ",
"    .#          ###     ",
"    .#   ...            ",
"    .#  .+@@.           ",
"    .....@+@.#          ",
"     ###.@@$.#          ",
"         ...##          ",
"          ###           ",
"                        "};
