/* XPM */
static const char * set_home_xpm[] = {
"24 24 5 1",
" 	c None",
".	c #000000",
"+	c #FFFFFF",
"@	c #B2B2B2",
"#	c #828282",
" ....                   ",
" .+@.#                  ",
" .+@.#                  ",
" .+@.#                  ",
" .+@.#                  ",
" .+@.#                  ",
"  ..#             ...   ",
"   #         .... .+##  ",
" ....      ........+##  ",
" .+@.#   ..........+##  ",
" ....#  .....#.....+#.. ",
"  #### ....###++........",
"      ...###++++++......",
"     ...##++++###++.... ",
"     ###++++++#..++..#.#",
"       .++++++#..++.##.#",
"       .+++++++++++.##.#",
"       .+++####++++.##.#",
"       .+++#...++++.##.#",
"       .+++#...++++.##.#",
"       .+++#...++++.#..#",
"       .+++#...++++...##",
"       ..............## ",
"        ##############  "};
