<?xml version="1.0" encoding="UTF-8" standalone="no"?>
<!-- Created with Inkscape (http://www.inkscape.org/) -->
<svg
   xmlns:dc="http://purl.org/dc/elements/1.1/"
   xmlns:cc="http://creativecommons.org/ns#"
   xmlns:rdf="http://www.w3.org/1999/02/22-rdf-syntax-ns#"
   xmlns:svg="http://www.w3.org/2000/svg"
   xmlns="http://www.w3.org/2000/svg"
   xmlns:sodipodi="http://sodipodi.sourceforge.net/DTD/sodipodi-0.dtd"
   xmlns:inkscape="http://www.inkscape.org/namespaces/inkscape"
   width="2362.1631"
   height="447.50977"
   id="svg3502"
   sodipodi:version="0.32"
   inkscape:version="0.46"
   version="1.0"
   sodipodi:docname="titlefont.svg"
   inkscape:output_extension="org.inkscape.output.svg.inkscape">
  <defs
     id="defs3504">
    <linearGradient
       id="linearGradient3181">
      <stop
         id="stop3189"
         offset="0"
         style="stop-color:#ffffff;stop-opacity:1;" />
      <stop
         style="stop-color:#e0e0d0;stop-opacity:1;"
         offset="1"
         id="stop3185" />
    </linearGradient>
    <inkscape:perspective
       sodipodi:type="inkscape:persp3d"
       inkscape:vp_x="0 : 526.18109 : 1"
       inkscape:vp_y="0 : 1000 : 0"
       inkscape:vp_z="744.09448 : 526.18109 : 1"
       inkscape:persp3d-origin="372.04724 : 350.78739 : 1"
       id="perspective3510" />
  </defs>
  <sodipodi:namedview
     id="base"
     pagecolor="#ffffff"
     bordercolor="#666666"
     borderopacity="1.0"
     inkscape:pageopacity="0.0"
     inkscape:pageshadow="2"
     inkscape:zoom="0.35"
     inkscape:cx="350"
     inkscape:cy="520"
     inkscape:document-units="px"
     inkscape:current-layer="layer1"
     showgrid="false"
     inkscape:window-width="640"
     inkscape:window-height="665"
     inkscape:window-x="630"
     inkscape:window-y="293" />
  <metadata
     id="metadata3507">
    <rdf:RDF>
      <cc:Work
         rdf:about="">
        <dc:format>image/svg+xml</dc:format>
        <dc:type
           rdf:resource="http://purl.org/dc/dcmitype/StillImage" />
      </cc:Work>
    </rdf:RDF>
  </metadata>
  <g
     inkscape:label="Ebene 1"
     inkscape:groupmode="layer"
     id="layer1"
     transform="translate(401.08154,-165.75016)">
    <path
       style="font-size:22px;font-style:normal;font-variant:normal;font-weight:normal;font-stretch:normal;fill:#000000;fill-opacity:1;stroke:none;stroke-width:1px;stroke-linecap:butt;stroke-linejoin:miter;stroke-opacity:1;font-family:Arial;-inkscape-font-specification:Arial"
       d="M -343.70854,510.67692 L -343.70854,613.25992 L -401.08154,613.25992 L -401.08154,271.08707 L -343.70854,271.08707 L -343.70854,287.61051 C -329.32704,273.53523 -311.6562,266.49748 -290.6958,266.49723 C -212.36268,266.49748 -173.19606,309.64197 -173.1958,395.93082 C -173.19606,436.16853 -184.05868,467.14995 -205.78369,488.87516 C -227.35616,510.60042 -256.88412,521.46304 -294.36768,521.46305 C -312.42118,521.46304 -328.86814,517.86767 -343.70854,510.67692 M -343.70854,331.21402 L -343.70854,460.41813 C -333.30494,468.83289 -321.14187,473.04024 -307.21924,473.0402 C -280.75129,473.04024 -261.77995,466.76746 -250.30518,454.22184 C -238.67776,441.52335 -232.86397,421.55754 -232.86377,394.32438 C -232.86397,365.25552 -238.60126,344.83073 -250.07569,333.04996 C -261.55046,321.11656 -280.5218,315.14977 -306.98975,315.14957 C -320.75939,315.14977 -332.99894,320.50459 -343.70854,331.21402 M 96.457467,411.53629 L -79.104033,411.53629 C -78.033133,431.11971 -71.301333,446.34268 -58.908733,457.20524 C -46.516233,468.06791 -29.839833,473.49922 -8.8794329,473.49918 C 17.282567,473.49922 37.171867,466.69096 50.788567,453.07438 L 73.049267,496.90738 C 52.853767,513.27783 22.713867,521.46304 -17.370633,521.46305 C -54.854433,521.46304 -84.535433,510.52393 -106.41358,488.64567 C -128.13886,466.61447 -139.00148,435.93904 -139.00147,396.6193 C -139.00148,357.91178 -127.0679,326.54787 -103.20069,302.5275 C -79.180533,278.50756 -50.417633,266.49748 -16.911633,266.49723 C 18.735967,266.49748 47.345967,277.13061 68.918467,298.39664 C 90.490467,319.66312 101.27657,346.74317 101.27687,379.63688 C 101.27657,386.67477 99.670167,397.30789 96.457467,411.53629 M -77.038533,368.39176 L 43.674267,368.39176 C 39.696267,332.43817 19.806967,314.4613 -15.993633,314.4611 C -48.734633,314.4613 -69.082933,332.43817 -77.038533,368.39176 M 305.06587,516.8732 L 305.06587,374.81754 C 305.06577,353.85742 301.01137,338.55795 292.90287,328.9191 C 284.94697,319.28063 271.86587,314.4613 253.65967,314.4611 C 245.24487,314.4613 236.21817,316.83271 226.57957,321.57535 C 217.09377,326.31838 209.67357,332.20868 204.31887,339.24625 L 204.31887,516.8732 L 146.94577,516.8732 L 146.94577,271.08707 L 188.25437,271.08707 L 198.81107,294.03629 C 214.41637,275.67716 237.44207,266.49748 267.88817,266.49723 C 297.10997,266.49748 320.13567,275.29467 336.96537,292.88883 C 353.94747,310.33044 362.43867,334.73309 362.43897,366.09684 L 362.43897,516.8732 L 305.06587,516.8732 M 487.28263,233.67985 L 487.28263,312.39567 L 605.47114,312.39567 L 605.47114,363.11344 L 487.28263,363.11344 L 487.28263,516.8732 L 427.61473,516.8732 L 427.61473,180.66715 L 649.07464,180.66715 L 649.07464,233.67985 L 487.28263,233.67985 M 708.51314,179.51969 L 765.88624,165.75016 L 765.88624,442.05875 C 765.88614,472.35176 774.91274,490.40513 792.96624,496.21891 C 784.09244,513.04834 768.94604,521.46304 747.52684,521.46305 C 721.51764,521.46304 708.51314,503.40968 708.51314,467.30289 L 708.51314,179.51969 M 882.23874,175.84781 C 891.41834,175.84816 899.22104,179.13754 905.64694,185.71598 C 912.22564,192.14208 915.51504,199.94481 915.51514,209.12418 C 915.51504,218.30417 912.22564,226.18339 905.64694,232.76188 C 899.22104,239.18794 891.41834,242.40082 882.23874,242.40055 C 873.05894,242.40082 865.17974,239.18794 858.60104,232.76188 C 852.17524,226.18339 848.96234,218.30417 848.96234,209.12418 C 848.96234,199.94481 852.17524,192.14208 858.60104,185.71598 C 865.17974,179.13754 873.05894,175.84816 882.23874,175.84781 M 852.63424,516.8732 L 852.63424,318.13297 L 821.19384,318.13297 L 821.19384,271.08707 L 910.69574,271.08707 L 910.69574,516.8732 L 852.63424,516.8732 M 1030.4907,510.67692 L 1030.4907,613.25992 L 973.11764,613.25992 L 973.11764,271.08707 L 1030.4907,271.08707 L 1030.4907,287.61051 C 1044.8721,273.53523 1062.5429,266.49748 1083.5033,266.49723 C 1161.8365,266.49748 1201.0031,309.64197 1201.0033,395.93082 C 1201.0031,436.16853 1190.1405,467.14995 1168.4155,488.87516 C 1146.843,510.60042 1117.315,521.46304 1079.8315,521.46305 C 1061.778,521.46304 1045.331,517.86767 1030.4907,510.67692 M 1030.4907,331.21402 L 1030.4907,460.41813 C 1040.8942,468.83289 1053.0573,473.04024 1066.9799,473.0402 C 1093.4479,473.04024 1112.4192,466.76746 1123.894,454.22184 C 1135.5214,441.52335 1141.3352,421.55754 1141.3354,394.32438 C 1141.3352,365.25552 1135.5979,344.83073 1124.1235,333.04996 C 1112.6487,321.11656 1093.6774,315.14977 1067.2094,315.14957 C 1053.4398,315.14977 1041.2002,320.50459 1030.4907,331.21402 M 1304.0453,510.67692 L 1304.0453,613.25992 L 1246.6723,613.25992 L 1246.6723,271.08707 L 1304.0453,271.08707 L 1304.0453,287.61051 C 1318.4268,273.53523 1336.0976,266.49748 1357.058,266.49723 C 1435.3912,266.49748 1474.5578,309.64197 1474.558,395.93082 C 1474.5578,436.16853 1463.6952,467.14995 1441.9701,488.87516 C 1420.3977,510.60042 1390.8697,521.46304 1353.3862,521.46305 C 1335.3327,521.46304 1318.8857,517.86767 1304.0453,510.67692 M 1304.0453,331.21402 L 1304.0453,460.41813 C 1314.4489,468.83289 1326.612,473.04024 1340.5346,473.0402 C 1367.0025,473.04024 1385.9739,466.76746 1397.4487,454.22184 C 1409.0761,441.52335 1414.8899,421.55754 1414.8901,394.32438 C 1414.8899,365.25552 1409.1526,344.83073 1397.6782,333.04996 C 1386.2034,321.11656 1367.232,315.14977 1340.7641,315.14957 C 1326.9945,315.14977 1314.7549,320.50459 1304.0453,331.21402 M 1744.2115,411.53629 L 1568.6498,411.53629 C 1569.7207,431.11971 1576.4525,446.34268 1588.8451,457.20524 C 1601.2376,468.06791 1617.914,473.49922 1638.8744,473.49918 C 1665.0364,473.49922 1684.9258,466.69096 1698.5425,453.07438 L 1720.8033,496.90738 C 1700.6077,513.27783 1670.4677,521.46304 1630.3832,521.46305 C 1592.8994,521.46304 1563.2184,510.52393 1541.3403,488.64567 C 1519.615,466.61447 1508.7524,435.93904 1508.7524,396.6193 C 1508.7524,357.91178 1520.6859,326.54787 1544.5532,302.5275 C 1568.5733,278.50756 1597.3363,266.49748 1630.8422,266.49723 C 1666.4898,266.49748 1695.0999,277.13061 1716.6724,298.39664 C 1738.2444,319.66312 1749.0305,346.74317 1749.0308,379.63688 C 1749.0305,386.67477 1747.4241,397.30789 1744.2115,411.53629 M 1570.7153,368.39176 L 1691.4283,368.39176 C 1687.4502,332.43817 1667.5608,314.4613 1631.7602,314.4611 C 1599.0192,314.4613 1578.6709,332.43817 1570.7153,368.39176 M 1936.7554,324.55875 C 1926.5046,317.82718 1915.2595,314.4613 1903.02,314.4611 C 1889.7094,314.4613 1877.8523,320.50459 1867.4488,332.59098 C 1857.198,344.67774 1852.0727,359.44172 1852.0728,376.88297 L 1852.0728,516.8732 L 1794.6997,516.8732 L 1794.6997,271.08707 L 1852.0728,271.08707 L 1852.0728,293.57731 C 1868.1371,275.52416 1889.4799,266.49748 1916.1011,266.49723 C 1935.6843,266.49748 1950.6777,269.48087 1961.0816,275.44742 L 1936.7554,324.55875"
       id="text2697" />
  </g>
</svg>
